:SAMPLES-PER-SECOND 30
:FULLY-SPECIFIED
:DEGREES
328
root  69.5744 38.3277 -31.2706 23.3822 -1.18538 0.467255
RightUpLeg  -49.1468 -14.9107 8.40126
RightLeg  20.9026 -3.15106 -1.4953
RightFoot  4.2948 0.846709 -5.94327
RightToes  0.00048216 0.542163 -0.142577
Spine  66.7263 -3.88104 5.89083
Spine1  6.37777 1.10053 -4.24059
HEad  -45.9227 -4.8065 1.71518
LeftShoulder1  9.88572 -27.4949 -25.4873
LeftArm  -58.5615 -62.6072 -2.06179
LeftForeArm  -2.40072 -21.5852 -4.5346
LeftHand  -0.25398 0.0180481 5.50724
RightShoulder  2.97535 15.2563 8.40476
RightArm  -54.227 62.4207 1.29091
RightForeArm  -23.7622 19.8233 5.67621
RightHand  0.189864 4.53952 1.85488
LeftUpLeg  -49.9683 25.2093 -23.0572
LeftLeg  17.5734 2.16022 0.766264
LeftFoot  1.13297 -1.26741 11.4916
LeftToes  1.06244e-005 4.65854e-005 -8.18505e-006
329
root  69.5929 38.5099 -31.3884 22.3569 -1.52139 0.443817
RightUpLeg  -47.3795 -15.3056 8.16525
RightLeg  19.3356 -3.16314 -0.868343
RightFoot  5.45881 0.914956 -5.93224
RightToes  0.00048216 0.542163 -0.142577
Spine  66.0621 -3.82598 5.71575
Spine1  6.82233 1.07977 -4.39152
HEad  -45.6733 -4.89619 1.66332
LeftShoulder1  10.0258 -27.3221 -26.1484
LeftArm  -56.3392 -61.6716 -4.30366
LeftForeArm  -2.12684 -22.6088 -4.87117
LeftHand  -0.25398 0.0180481 5.50724
RightShoulder  3.11238 15.2058 9.27012
RightArm  -51.833 62.3764 3.64929
RightForeArm  -23.6298 21.0306 5.80053
RightHand  0.143515 4.44256 1.33723
LeftUpLeg  -47.4679 24.4288 -20.5037
LeftLeg  16.2235 3.91902 -0.0452433
LeftFoot  2.3859 -1.36823 11.2078
LeftToes  1.06244e-005 4.65854e-005 -8.18505e-006
330
root  69.6024 38.6699 -31.4886 21.325 -1.73404 0.500107
RightUpLeg  -45.1996 -14.9447 6.85382
RightLeg  17.496 -4.11508 0.0218364
RightFoot  6.47805 1.0004 -6.08771
RightToes  0.00048216 0.542163 -0.142577
Spine  65.3695 -3.88305 5.46788
Spine1  6.96083 0.969087 -4.70412
HEad  -45.1333 -4.94156 1.6697
LeftShoulder1  10.1168 -26.9875 -26.8348
LeftArm  -53.5637 -60.5139 -6.99927
LeftForeArm  -1.62371 -24.0697 -5.23275
LeftHand  -0.25398 0.0180481 5.50724
RightShoulder  3.27405 15.1565 10.2839
RightArm  -48.4903 62.0711 6.73533
RightForeArm  -23.8641 22.74 6.02604
RightHand  0.0690999 4.39254 0.463422
LeftUpLeg  -44.7401 22.5433 -17.0507
LeftLeg  15.165 6.82319 -1.02108
LeftFoot  3.59211 -1.44632 10.8342
LeftToes  1.06244e-005 4.65854e-005 -8.18505e-006
331
root  69.6073 38.7988 -31.5704 20.3175 -1.91606 0.541489
RightUpLeg  -42.8844 -13.8636 5.0023
RightLeg  15.5964 -5.65037 0.944233
RightFoot  7.3093 1.07101 -6.20697
RightToes  0.00048216 0.542163 -0.142577
Spine  64.5065 -3.84402 5.21652
Spine1  6.98638 0.896719 -4.87679
HEad  -44.3999 -4.93868 1.76679
LeftShoulder1  10.208 -26.6637 -27.5211
LeftArm  -50.7277 -59.1919 -9.91182
LeftForeArm  -0.846056 -25.8864 -5.59706
LeftHand  -0.25398 0.0180481 5.50724
RightShoulder  3.4579 15.0654 11.4797
RightArm  -45.0871 61.5094 9.77162
RightForeArm  -24.2513 24.8003 6.43311
RightHand  -0.00290505 4.0881 -0.377448
LeftUpLeg  -42.039 19.9775 -13.4338
LeftLeg  14.0223 10.5787 -1.95658
LeftFoot  4.49685 -1.48034 10.4131
LeftToes  1.06244e-005 4.65854e-005 -8.18505e-006
332
root  69.6136 38.9033 -31.629 19.2091 -2.10902 0.603699
RightUpLeg  -40.579 -12.6457 3.13339
RightLeg  13.9263 -7.19249 1.84186
RightFoot  7.85564 1.0993 -6.1712
RightToes  0.00048216 0.542163 -0.142577
Spine  63.3931 -3.64611 5.01129
Spine1  7.21051 0.829443 -4.69344
HEad  -43.6579 -5.01502 1.81292
LeftShoulder1  10.3368 -26.4186 -28.2538
LeftArm  -48.3207 -57.7847 -12.615
LeftForeArm  0.0393053 -27.9982 -6.04495
LeftHand  -0.25398 0.0180481 5.50724
RightShoulder  3.56606 14.8201 12.4097
RightArm  -42.2525 60.7474 12.6501
RightForeArm  -24.4321 27.0315 6.981
RightHand  -0.0648891 3.58542 -1.15297
LeftUpLeg  -39.099 16.9055 -9.99417
LeftLeg  12.2685 15.2486 -2.87815
LeftFoot  4.97076 -1.50737 10.275
LeftToes  1.06244e-005 4.65854e-005 -8.18505e-006
333
root  69.6137 38.9631 -31.6539 17.8759 -2.20683 0.843918
RightUpLeg  -37.9379 -11.6435 1.19323
RightLeg  12.0309 -8.10457 2.83103
RightFoot  7.79944 1.09381 -6.15994
RightToes  0.00048216 0.542163 -0.142577
Spine  62.0615 -3.41252 4.70737
Spine1  7.52681 0.658152 -4.2914
HEad  -42.9715 -5.1874 1.65851
LeftShoulder1  10.4781 -26.1576 -29.0582
LeftArm  -46.0876 -56.2265 -15.0159
LeftForeArm  0.677933 -30.3793 -6.59454
LeftHand  -0.25398 0.0180481 5.50724
RightShoulder  3.56802 14.4495 12.8677
RightArm  -39.6149 59.8209 15.9132
RightForeArm  -24.3131 29.3398 7.55568
RightHand  -0.121645 3.07721 -1.95086
LeftUpLeg  -36.0374 13.7552 -7.29204
LeftLeg  10.1908 20.0772 -3.81974
LeftFoot  4.92528 -1.54606 10.5766
LeftToes  1.06244e-005 4.65854e-005 -8.18505e-006
334
root  69.5967 38.966 -31.645 16.4731 -2.23184 1.24768
RightUpLeg  -35.1244 -10.7742 -0.663305
RightLeg  9.82562 -8.21972 3.72139
RightFoot  7.17072 1.08513 -6.34619
RightToes  0.00048216 0.542163 -0.142577
Spine  60.7354 -3.18542 4.1524
Spine1  7.66059 0.457734 -3.96967
HEad  -42.201 -5.29665 1.48985
LeftShoulder1  10.5828 -25.8055 -29.862
LeftArm  -43.7367 -54.341 -17.3258
LeftForeArm  1.26955 -32.9392 -7.22567
LeftHand  -0.25398 0.0180481 5.50724
RightShoulder  3.60286 14.1553 13.4523
RightArm  -36.7852 58.7082 19.4643
RightForeArm  -23.9478 31.6694 8.15818
RightHand  -0.168626 2.57004 -2.71034
LeftUpLeg  -33.6485 11.3799 -5.70279
LeftLeg  9.05736 23.5726 -4.45946
LeftFoot  4.52077 -1.53716 10.7998
LeftToes  1.06244e-005 4.65854e-005 -8.18505e-006
335
root  69.5761 38.9918 -31.6331 15.1548 -2.43784 1.55389
RightUpLeg  -32.8891 -10.0457 -1.77349
RightLeg  8.30272 -8.27554 4.07424
RightFoot  6.86901 1.09326 -6.51457
RightToes  0.00048216 0.542163 -0.142577
Spine  59.4717 -2.85634 3.5299
Spine1  7.57358 0.406623 -3.81411
HEad  -41.2123 -5.28867 1.6193
LeftShoulder1  10.6208 -25.424 -30.4871
LeftArm  -41.3684 -52.126 -19.6673
LeftForeArm  2.14219 -35.5032 -7.88447
LeftHand  -0.25398 0.0180481 5.50724
RightShoulder  3.76465 14.0009 14.6663
RightArm  -33.8587 57.3839 22.583
RightForeArm  -23.7076 33.9954 8.80264
RightHand  -0.201175 1.93213 -3.39554
LeftUpLeg  -31.9719 10.222 -4.80562
LeftLeg  8.90078 25.1962 -4.70776
LeftFoot  4.43646 -1.4858 10.4974
LeftToes  1.06244e-005 4.65854e-005 -8.18505e-006
